<svg id="Layer_1" data-name="Layer 1" xmlns="http://www.w3.org/2000/svg" viewBox="0 0 588 588"><defs><style>.cls-1{fill:#9b0101;}.cls-2{fill:#fbeae7;}.cls-3{fill:#f09290;}.cls-4{fill:#f9cfc9;}.cls-5{fill:#f3928e;}.cls-6{fill:#f8c9c4;}.cls-7{fill:#f8d1cf;}.cls-8{fill:#f7b7b4;}.cls-9{fill:#f7a49f;}.cls-10{fill:#f7cfc9;}.cls-11{fill:#f5c1bc;}.cls-12{fill:#f29897;}.cls-13{fill:#efa4a2;}.cls-14{fill:#e97574;}.cls-15{fill:#ed7975;}.cls-16{fill:#f5a19d;}.cls-17{fill:#ec7a7a;}.cls-18{fill:#f39996;}.cls-19{fill:#e97977;}.cls-20{fill:#f09796;}.cls-21{fill:#f5cdc7;}.cls-22{fill:#f4b8b5;}.cls-23{fill:#f29290;}.cls-24{fill:#ed9e9a;}.cls-25{fill:#f7c5be;}.cls-26{fill:#eda49e;}.cls-27{fill:#eda39f;}.cls-28{fill:#f6b6b0;}.cls-29{fill:#f1a7a2;}.cls-30{fill:#ed7573;}.cls-31{fill:#e37876;}.cls-32{fill:#ec716f;}.cls-33{fill:#ea8e89;}.cls-34{fill:#e37b78;}.cls-35{fill:#f7c6c4;}.cls-36{fill:#ee8584;}.cls-37{fill:#ef8988;}.cls-38{fill:#e9908d;}.cls-39{fill:#df6968;}.cls-40{fill:#f68786;}.cls-41{fill:#d35957;}.cls-42{fill:#eb7f7c;}.cls-43{fill:#db5756;}.cls-44{fill:#e46e6a;}.cls-45{fill:#d15150;}.cls-46{fill:#b65659;}.cls-47{fill:#f37875;}.cls-48{fill:#621115;}.cls-49{fill:#710c0c;}.cls-50{fill:#6a1012;}.cls-51{fill:#700d11;}.cls-52{fill:#f3bcb8;}.cls-53{fill:#880809;}.cls-54{fill:#6e0e0d;}.cls-55{fill:#f2bcba;}.cls-56{fill:#6f0e0c;}.cls-57{fill:#f9dada;}.cls-58{fill:#771114;}.cls-59{fill:#f9e5e2;}.cls-60{fill:#611a19;}.cls-61{fill:#974248;}.cls-62{fill:#bf696d;}.cls-63{fill:#950102;}.cls-64{fill:#7f191b;}.cls-65{fill:#851115;}.cls-66{fill:#7b191a;}.cls-67{fill:#d77272;}.cls-68{fill:#7d1516;}.cls-69{fill:#6e191d;}.cls-70{fill:#793535;}.cls-71{fill:#85292a;}.cls-72{fill:#8a1b19;}.cls-73{fill:#8f0507;}.cls-74{fill:#8f0606;}.cls-75{fill:#861f1d;}.cls-76{fill:#6d3b38;}.cls-77{fill:#821312;}.cls-78{fill:#874c45;}.cls-79{fill:#7a130e;}.cls-80{fill:#904c49;}.cls-81{fill:#6f1415;}.cls-82{fill:#f5aaa7;}.cls-83{fill:#771916;}.cls-84{fill:#e7807f;}.cls-85{fill:#6d2016;}.cls-86{fill:#681b1b;}.cls-87{fill:#7d0b08;}</style></defs><path class="cls-1" d="M25.11,318.9q-144.66,0-289.34.08c-3.46,0-4.77-.32-4.77-4.42q.19-289.58,0-579.17c0-3.5.59-4.39,4.3-4.39q289.58.18,579.17,0c3.95,0,4.5,1.11,4.5,4.69Q318.85,25,319,314.36c0,3.66-.71,4.65-4.55,4.64Q169.79,318.81,25.11,318.9Z" transform="translate(269 269)"/><path class="cls-2" d="M239.81,54.25a96.92,96.92,0,0,0-10.37-1.38c-6.11-.17-10.12-3.15-12.18-8.62-1.63-4.35-4.55-5.63-9-6.12C134.82,30.07,61.11,29-12.7,28.94S-160.21,32.31-234,33.12c-4,0-8-.17-12-.29-2.57-.07-4.77-1-7.63-3.57,3.4-.37,5.88-.74,8.37-.91,113.52-8,227.17-11.65,341-9.09,37.29.83,74.45,4.35,111.67,6.84,7.09.47,13.87-.09,20.51-2.87a25.27,25.27,0,0,1,15.16-1.39c1.44,1.48,4.81-.37,5.16,3-1.67,6.29-4.42,12.31-4.84,18.92a33.4,33.4,0,0,0-1,6.69C242.36,52.14,242.44,54.18,239.81,54.25Z" transform="translate(269 269)"/><path class="cls-3" d="M239.81,54.25c2.24-3.47-.17-7.75,2-11.24,2.37,1.18,1.57,3.4,1.64,5.27.13,3.93-.43,7.95,1.29,11.69,1.62,3.56,3.84,6.24,8.35,5.19a3.85,3.85,0,0,1,2.59,1.41c1.18,4.26,1.77,8.67,3,12.94A11.93,11.93,0,0,0,261.91,85c4.22,4.06,7,4,11.1-.36-5.32,5.43-10.94,3.65-13.9-4.41a3.19,3.19,0,0,1,1.47-2.39c2.3-.59,3.05,1.44,4.32,2.57s2.75,2.29,4.11.34c1.14-1.63,3-3.45.56-5.54-1.67-1.46-4.13-2.27-4.1-5.1a2.57,2.57,0,0,1,1.3-1.58c.86-.25,1.85-.1.64-1.58-2.4-2.91-4.16-6.16-2-10.07,2-.88,3.86-2.1,6.13-2.23,2.84,2.44,2.47,6.21,3.81,9.28,1,2.25,1.3,4.8,2.91,6.76,1.26,1.53,2.66,3.08,5,2.53,2-.48,2.51-2.22,3.41-3.84,1.63-2.88-.47-5.89.77-8.67A3.29,3.29,0,0,1,290,59.41c3.68,3,4.58,6.14,3.75,13.92a21.72,21.72,0,0,0-2.94-14.77c-2.48-4.29-4-9.16-.2-13.82a1.64,1.64,0,0,1,2,.35c-.23,1.3-.48,2.6-.69,3.9-.7,4.45.82,6.89,5.7,7.06,2.92.1,5.82,1,10,1.73-4.87,2.21-8.88.15-12.85,1.5a24.63,24.63,0,0,1,.46,19.38c-.73,1.93-1.38,4.11-4.06,3.17-2.19-.77-2.09-2.77-1.51-4.64a22,22,0,0,0,.82-11c-.66,5.64-2.82,9.93-9,10.82-1,.15-1.23.9-1.1,1.86.67,4.77-.8,9.24-2.24,13.63a24.09,24.09,0,0,0,1,18.41c1.63,3.52,2.42,7.28,1.32,11.14-.55,1.92-1.32,4.14-3.89,3.73s-2-2.6-1.83-4.41a16,16,0,0,0-1-8.28c-3.33-7.39-4.15-14.93-.67-23.34-4.92,1.68-8.93,1.29-12.49-1.74-4.34-3.69-5.95-8.67-6.69-14-.31-2.26-.45-4.16-3.2-4.87C243.11,67.18,240.58,61.32,239.81,54.25Z" transform="translate(269 269)"/><path class="cls-4" d="M-84.14-26.85c5.07-20.17,11.65-39.65,25-57.21,1.11,3.18-.39,4.77-1.15,6.36-6.82,14.44-13.65,28.87-19,44-2.36,6.72-3.49,13.37-.53,20.37A24.16,24.16,0,0,1-78.71,1.79c-.52,2.18-1,4.58-3.78,4.4C-85,6-85.91,3.85-86.42,1.64c-1.19-5.12-.76-10.24-.16-15.39.4-3.42,1.74-6.81.64-10.33C-86.62-25.84-84.19-25.57-84.14-26.85Z" transform="translate(269 269)"/><path class="cls-5" d="M-84.14-26.85c.34,1.53-1.18,1.86-1.8,2.77-4.72-5.81-9.8-11.35-14.07-17.47-8.57-12.28-7.82-23.74,1.89-35.13C-84-93.27-65.68-102.88-44.8-107.87c9-2.15,18.15-2.41,27,.89C-8.14-103.4-3.49-96.85-4-88A1.17,1.17,0,0,1-5.9-88c-.86-11.78-5.07-16.52-17-18.2-13.72-1.93-26.81.74-39.38,6.32-14.19,6.31-27,14.54-36.21,27.33-7.31,10.11-7.42,18.17-.39,28.5,3.64,5.35,7.76,10.38,11.76,15.47C-86.46-27.69-86-25.94-84.14-26.85Z" transform="translate(269 269)"/><path class="cls-6" d="M-5.9-88-4-88c0,11.64-6.32,20.33-13.83,28.2A115.32,115.32,0,0,1-55.63-33.41c-2.6,1.13-5.25,2.18-8.16,2.12-1.38,0-2.83-.38-3-2-.11-1.46,1.22-1.83,2.38-2.06C-46.08-39-32.21-50-19.38-62.54-12.24-69.53-7.12-77.78-5.9-88Z" transform="translate(269 269)"/><path class="cls-7" d="M32.85-49.14l10-29c-.92-1.37-.14-2.11,1-2.71,3.37-5.08,4.34-11.61,9.48-15.71-.38,4.73-2.41,8.84-4.28,13-.49,1.08-1.59,1.77-.06,2.75.29.85-.18,1.29-.87,1.59-5.54,10.76-9,22.29-12.21,33.87-1.86,6.65-4.1,13.3-2.62,20.4.51,1.11,2.91-.48,2.58,1.81-4.76,1.16-6-1.17-6-5.51a63.26,63.26,0,0,1,2.2-16.5C33-46.36,31.62-48,32.85-49.14Z" transform="translate(269 269)"/><path class="cls-8" d="M267,68.79c-.36.39-.72.78-1.07,1.18-3.08,1.77-4,4.93-5,8l-.78,2c-3.84-2.16-3.51-6.26-3.57-9.53-.21-10.93-.89-21.91.92-32.77.68-4.1,2.42-7.91,3.76-11.37a2.92,2.92,0,0,1-1.65,1.17,3.09,3.09,0,0,1-3-1.83,2.49,2.49,0,0,1,.79-3c-1.85,1.21-2.46,4.39-5.61,3.89a2.62,2.62,0,0,1-.89-4.42c-1.45.69-1.29,3.67-3.92,2.91-.28-2.34-3-1.57-3.93-3.14,2.5,0,4.81-.25,6.66-2.35a6.11,6.11,0,0,1,3.41-1.88c5-.74,9.88.12,14.8.54a2.5,2.5,0,0,1,1.77,2.45c-7,10-7.52,21.22-6.18,32.79a4.87,4.87,0,0,1-1,2.58c-1.39,1.7,1.08.18.84,1A80.7,80.7,0,0,1,267,68.79Z" transform="translate(269 269)"/><path class="cls-9" d="M-66.95,81c7.74,11.28,6.84,23.88-3.09,36.19-9,11.15-20.57,18.26-34.88,20.46a27.62,27.62,0,0,1-15.64-2c-7.65-3.41-9.67-10.23-5.33-17.64.91-.25,1.42.27,1.85,1a3.93,3.93,0,0,1,.41,1.42c.32,9.54,6,14.58,15.85,13.22,17.64-2.43,31-11.2,39-27.54,3-6.28,4-12.64,1-19.23A7.09,7.09,0,0,1-68.69,82C-68.35,81.26-67.89,80.7-66.95,81Z" transform="translate(269 269)"/><path class="cls-10" d="M292.63,45.09l-1.79.08c-1,.75-1.56,2.07-2.91,2.42a3.35,3.35,0,0,1-1.3-.07c-1.41-.48-2.33-2.11-4.12-1.69a3.06,3.06,0,0,1-2.68-1.12c-1.63-4.46-3.06-8.9-1.65-13.76,1.55-5.35,3-6.2,8.52-4.67.79.22,1.62.28,2.4.53l.8.24c1.22,1.73,3,2.25,5,2.65,6.07,1.2,12.3,1.83,19.4,4.88-6.76.8-12-.7-17.31-.75-2,0-4.91-1.48-5.19,2.5-.23,3.22.34,5.22,4.29,5.65A49.79,49.79,0,0,1,310,45.09Z" transform="translate(269 269)"/><path class="cls-11" d="M107.86-40.17c-2.27.36-2.52,1.93-2.81,3.92-.84,5.84-4.52,9.74-9.49,12.53-1.43.8-3.14,1.66-4.42-.12a3.51,3.51,0,0,1,.48-4.57c2.1-2.33,4.36-4.51,6.63-6.68,4.69-4.47,4.71-4.47,0-8.59L95.7-46c-2-.66-2.76-2-1.91-4-.84-5.17,3.19-7.1,6.42-9.49a25.57,25.57,0,0,1,10.4-4.48c1.46-.29,3.16-.21,4,1.23,1,1.61-.34,2.86-1.33,3.88a37.4,37.4,0,0,1-12,8.66c-3.7,1.57-3.42,3.08-.41,4.78,2.24,1.27,2.9,6.16,7.06,3.24A1.25,1.25,0,0,1,107.86-40.17Z" transform="translate(269 269)"/><path class="cls-12" d="M-8,125c-3.47-.76-2.39-3.6-2.25-5.61.57-8.44,4.32-15.94,7.41-23.63.91-2.27,2-4.47,2-7.27-2.53,4.22-5.15,8.4-7.57,12.69a58.66,58.66,0,0,1-6.82,9.76c-.65.74-1.44,1.61-2.52,1.26-1.44-.46-1.33-1.88-1.12-3,.8-4.12,1.43-8.52,7.2-8.36,2,.06,2.27-1.66,3-2.85,3.95-6.34,7.84-12.71,11.79-19a22.51,22.51,0,0,1,2.68-3.59c.8-.85,1.39-2.8,3-1.69,1.35.93-.06,2.14-.47,3.06C5.79,82.48,3.07,88.17.49,93.93a145.25,145.25,0,0,0-8,21.42c-.67,2.49-1.93,5-.49,7.69A1.22,1.22,0,0,1-8,125Z" transform="translate(269 269)"/><path class="cls-13" d="M156,111.12c2.09-3.45,7.2-4.41,7.59-9.34a10.4,10.4,0,0,0-.26-5.06c-11,13.17-16.18,27.92-18.9,43.84-2.46-4,8.39-43,14.54-51.55-.41,5.63-3.12,10.09-4.34,16.38,2.15-3,3.49-4.88,4.82-6.76,1.19-1.66,2.51-3.54,4.78-2.8,2.5.8,2,3.36,1.66,5.15-.6,2.9-.26,4.53,4,4-4.55.14-6,2.92-7.68,5.6a14.19,14.19,0,0,1-3.42,3.54c-1.22.95-2.83,2.65-4.27.91s.21-3,1.56-4l.27.32Z" transform="translate(269 269)"/><path class="cls-14" d="M-66.95,81l-1.19,1.17c-2.29.64-3.8-.79-5.23-2.14-10.46-9.89-29.66-8.53-39.94-1.76-6.22,4.11-7.39,8.37-4.51,15.27,1,2.53,2.93,5,1.47,8l-.56.5c-4.1-4-5.56-9.31-6.62-14.63a9.42,9.42,0,0,1,2.45-7.86C-110.44,67-80.95,61.76-66.95,81Z" transform="translate(269 269)"/><path class="cls-15" d="M-173.06,72.82c1.06-2,3.16-2.38,4.94-3.1,7.65-3.1,11.73.17,10.51,8.33-1.77,11.87-5.88,23.15-8.85,34.72-1.77,6.93-3.44,13.88-5.15,20.82-.26,1,.21,2.82-1.37,2.71-1.94-.14-1.31-2-1.18-3.2.62-5.49,2.53-10.67,4-16,3.47-12.65,7.92-25,10.35-38,.54-2.9,1.73-6.19-1.25-8.33-2.71-2-5.36.2-8,1.06-1.26.42-2.52.8-3.78,1.2Z" transform="translate(269 269)"/><path class="cls-16" d="M83,108.75c-7,6.37-7.8,15.08-8.77,23.68a2.87,2.87,0,0,0,1.87,2.67c.51.71,2.43-.14,1.89,1.72-4.29.9-5.65-1.48-5.87-5.19-.3-4.92,1.42-9.42,2.81-14,.51-1.67,1.74-3.16,1.49-5.08-1.93-.76-3.91,1.29-5.68-.17-.11-.95.43-1.25,1.13-1.35,4.64-.63,7.35-3.22,9.59-7.44C87.17,92.74,94.21,82.75,103.94,75a.81.81,0,0,1,1.19-.15c.92,2.78-1.17,4.31-2.64,6-7.06,7.91-12.76,16.8-18.72,25.49A23.4,23.4,0,0,1,83,108.75Z" transform="translate(269 269)"/><path class="cls-17" d="M51.74,82.75A48.74,48.74,0,0,1,67.45,69.2,10.48,10.48,0,0,1,72.72,68c4.24,0,5.76,1.94,4.37,6.06a21.43,21.43,0,0,1-3.21,6.14,96.59,96.59,0,0,1-32.94,27.62c-.7-.24-1.32-.55-1.38-1.41.42-2.7,2.76-3.61,4.65-4.86,8.23-5.42,16-11.38,22.66-18.7a29.72,29.72,0,0,0,5.3-7.8c.33-.74.85-1.63.28-2.35-.77-1-1.84-.46-2.76-.11a29.22,29.22,0,0,0-11.08,8.29c-1.52,1.7-2.78,3.88-5.6,3.57A2.28,2.28,0,0,1,51.74,82.75Z" transform="translate(269 269)"/><path class="cls-18" d="M51.74,82.75,53,83.9c1.15,1.83-.12,3.19-1.07,4.43-4,5.24-6.92,11.27-11.55,16.07a2.4,2.4,0,0,0-.64,2.29l1.22,1.08a10.12,10.12,0,0,0-6.63,6.7c-1.73,5-3.6,9.94-4.22,15.21-.42,3.5.41,6,4.8,5.18,1.1-.37,1.33.14,1.11,1.1-5,3-8.46-.28-8.14-5.46.38-6.22,2.71-11.88,4.49-17.73-2-1.22-4.3,1.49-6.68-1.47,8.95.09,10.9-7,14.29-12.62A91.77,91.77,0,0,1,51.74,82.75Z" transform="translate(269 269)"/><path class="cls-19" d="M83,108.75,82.18,107c4.27-5.5,10.8-8.08,16-12.35A158.05,158.05,0,0,0,113.58,79.8a13.42,13.42,0,0,0,2.21-3.3c.63-1.29,1.92-2.83.76-4.11s-2.71.16-4,.69c-2.32,1-4.17,3.55-7.19,2L103.94,75c3.28-3.66,7-6.57,12.14-6.95,5.26-.39,6.63,1.54,5,6.52-1.09,3.42-3.34,6.09-5.6,8.71C106.34,93.88,95.92,103,83,108.75Z" transform="translate(269 269)"/><path class="cls-20" d="M269,20.1l-1-2c6.7.9,13.34,2.05,19.53,4.91a3.73,3.73,0,0,1,2.42,4l.1,0c-1.63.55-2.83-.54-4.19-1.06-3.45-1.32-5.71-.31-6.87,3.23-2,6.19-.7,12.1,1.71,17.89.81,1.94,2.37,3.8.6,6a2,2,0,0,1-1.44.36c-4.81-3.32-3.46-8.86-4.55-12.78-.14,3.82,1.65,8,2.07,12.4a2.94,2.94,0,0,1-2.54,1.44c-3.29-1.25-2.66-4.27-2.81-6.75a63.33,63.33,0,0,1,2.83-24.08c-.94-.66-2.12-.55-3.1-1C270.56,22.05,269.94,20.88,269,20.1Z" transform="translate(269 269)"/><path class="cls-15" d="M-172.82,73.1c-6.49,5.38-13.82,9.85-18.48,17.19A32.32,32.32,0,0,0-194.08,95c-3.57,8.37-.22,13.25,8.94,13.1,1.32,0,2.65-.19,4-.28s3.32-1.46,3.65.87c.25,1.75-1.86,1.49-3.05,1.77a18,18,0,0,1-10.31-.56c-5.15-1.83-7.46-6-6.2-11.4,2.18-9.36,9.09-15.23,16-20.91,2.35-1.93,4.63-4.35,8-4.75Z" transform="translate(269 269)"/><path class="cls-21" d="M2-52.09c-2.62,4.8-7.61,6.84-11.66,10-1,.75-2.25,1.63-3.63.67-1.55-1.07-1.22-2.62-.74-4A19.5,19.5,0,0,1-5.92-55.79c1.66-1.06,3.73-1.86,5,.86C-.79-53.14,2.17-54.25,2-52.09Z" transform="translate(269 269)"/><path class="cls-22" d="M222.71,83c2.24-2.52,2.51-6.34,5.65-9.11.59,3.18-1.4,5-1.6,7.23-.22.92.26,2-.68,2.75a90.58,90.58,0,0,0-9.22,28.6c-.44,3.09-.47,6.17,4.59,2.69-1.63,2.38-3.32,3.33-5.18,2.67-2.24-.8-1.26-3.09-1.42-4.75a24,24,0,0,1,1.32-9.26c1.84-6.07,1.49-12.86,5.9-18.09C222.8,84.91,222,83.77,222.71,83Z" transform="translate(269 269)"/><path class="cls-23" d="M-155.61,104.2a39,39,0,0,0-1.79,5.13c-1.06,5.19-.35,6,4.78,6.21-4.74,2.6-7.42,1.33-7.15-3.85.64-12.24,6.22-22.58,13.27-32.22,1-1.36,2.33-3.49,4.41-2.23s.25,3.28,0,4.94a6,6,0,0,1-.92,1.73.87.87,0,0,1-1.09.24c-2.59-.69-2.44,1.79-3.14,3-2.54,4.29-4.14,9.06-6.6,13.4A7.79,7.79,0,0,0-155.61,104.2Z" transform="translate(269 269)"/><path class="cls-24" d="M2-52.09c-1-1-3.07-.76-3-2.84.43.26,1,.85,1.25.74C6.35-57,7.45-53.07,8.5-48.45c.69,3,3,4.44,6.3,4.55,6.64.22,12-3.58,18.05-5.24-.12,1.36.71,2.89-.74,4-1.12-2.94-2.76-.59-3.9-.18-4.67,1.71-9.23,3.7-14.37,3.59-5.52-.13-7.9-1.83-9-7.22C4.48-50.8,4.16-52.15,2-52.09Z" transform="translate(269 269)"/><path class="cls-25" d="M73.79-28.77c-2.44-2.56-1.46-5.55-.81-8.34a51.37,51.37,0,0,1,5.21-13.2c1.17-1.66-1.67-2-1.13-3.44,1.61-1.56,2.79-3.71,5.38-4,1.31,2.13,0,3.87-.72,5.6C79.39-46.31,77-40.53,75.55-34.4c-.35,1.52-1.33,3.18.55,4.44C76.08-28.12,74.91-28.49,73.79-28.77Z" transform="translate(269 269)"/><path class="cls-26" d="M253.82,106.21c-7.77,4.59-10.65,4-14.61-3.17-3.4,3.89-7.47,6.56-12.79,6.89,1.54-2.12,3.14-4.51,4.93-6.77,3.54-4.45,8.93-3.78,11.17,1.49,1.15,2.71,3,3.35,5.55,2.92C250,107.24,251.9,106.67,253.82,106.21Z" transform="translate(269 269)"/><path class="cls-27" d="M123.05,102.56a26.91,26.91,0,0,1-7.62,6.28c-1.14.68-2.1,1.15-2.68-.56-.85-2.52,4.2-9.06,6.49-8,2.45,1.15,6.32-.22,7.21,4.69.81,4.51,5.4,2.1,8.64,2.23C128.76,110.73,125.49,109.58,123.05,102.56Z" transform="translate(269 269)"/><path class="cls-28" d="M204.06,108c-1.68-1.85-4.63-3-3.06-6.52A7.4,7.4,0,0,1,207,97c2.62-.41,2.76,1,1.89,2.94-2.91,1-5.7,2-3.86,6,1.86,1.52,2.47-.16,3.39-1.26a23.13,23.13,0,0,1,5.44-5.11c-1,1.35-1.85,2.78-2.94,4-1.94,2.23-3.59,4.2-2.58,7.71.77,2.64-1.4,4.87-3.45,6.65-.82.37-1.22-.13-1.56-.75-.63-2,1.55-3.55,1.1-5.56C204.32,110.43,204.78,109.16,204.06,108Z" transform="translate(269 269)"/><path class="cls-29" d="M196.63,107.17c-7.49,3.36-9.9,2.54-13.1-4-2.27,1.73-4.52,3.49-6.81,5.18-.94.7-2.38,1.53-3.1.59s-1.24-3.84-1-3.94c2.62-1.12,4.12-5.32,6.48-4.59s6.27-1.15,7.24,3.55C187.48,109.62,192.21,107.12,196.63,107.17Z" transform="translate(269 269)"/><path class="cls-30" d="M77.94,136.82l-1.89-1.72c5.67-.71,10-4.17,14.59-7.12,4.73-3.06,9.28-6.47,14.59-8.43,2.69-1,5.94-2.1,8.68,2.61-7.37-2.76-12.08.89-17.2,3.88C90.48,129.68,85.34,135.23,77.94,136.82Z" transform="translate(269 269)"/><path class="cls-31" d="M-28.53,105.21a17.48,17.48,0,0,1-2.49.52c-5.4-.24-5.39-.24-9.23,4.21-1,1.14-2,2.31-3.77,2-2-.39-1.7-2.13-2-3.55-.85-3.9,2.46-5.52,4.44-7.62,1.83-1.93,3.19.65,4.49,1.64C-34.95,104-32.27,104.09-28.53,105.21Z" transform="translate(269 269)"/><path class="cls-32" d="M36,136l-1.11-1.1c7.79-4.7,15.57-9.42,23.38-14.08,2.78-1.66,5.76-2.61,9-1.63,1,.29,2,.93,1.51,2.11-.41,1-1.29.37-2.09.14-4.47-1.32-8,1-11.62,3.08C48.65,128.18,43.17,133.46,36,136Z" transform="translate(269 269)"/><path class="cls-33" d="M5,108c1.39-3,2.64-6.14,6-7.6,1.57-.69,3.62-1.49,4.47.24,1,1.94-.89,3.31-2.57,4.18a14.67,14.67,0,0,1-2.4.67,1.64,1.64,0,0,0-1.37,1.78c0,1.31.89,1.64,2,1.76,3.37.36,6.52-.63,10.62-2.32-7,5.2-11.28,5.45-15.6,1.56A.77.77,0,0,1,5,108Z" transform="translate(269 269)"/><path class="cls-14" d="M-124.91,119l-1-1c1-3.26,3.58-5.31,6.16-6.93,3.81-2.42,5.14-5.06,2.82-9.12l0,0c3.21-.75,5.43,1.92,8.3,2.37a2.81,2.81,0,0,1,1.18,2.43c-1.06,1.68-2,3.37-1,5.44a2.74,2.74,0,0,1-2.4,2.3c-3.81-2-6.86-1.1-9.52,2.23C-121.45,118.09-122.64,119.82-124.91,119Z" transform="translate(269 269)"/><path class="cls-34" d="M73.79-28.77,76.1-30A51.75,51.75,0,0,0,93.79-50a7.67,7.67,0,0,0,1.91,4c-2.48-.08-3.15,2.11-4.25,3.59A63,63,0,0,1,79.81-29.8C78.07-28.43,76.22-26.6,73.79-28.77Z" transform="translate(269 269)"/><path class="cls-35" d="M58.1-39c-1.83-.9-.54-3.39-2.23-4.36A1.46,1.46,0,0,1,54.76-44c1.66-2.6,3.28-5.22,5-7.78.69-1,1.46-2.67,3-1.82,1.29.72.11,2-.19,3.08-1,3.4-3.42,6.48-2.35,10.35C60.25-38.39,59.39-38.29,58.1-39Z" transform="translate(269 269)"/><path class="cls-36" d="M54.76-44l1.11.63A95.52,95.52,0,0,1,40.5-25.67c-1.24,1.13-2.41,2.9-4.6,2.53-.64-.91-2.26-.44-2.58-1.81,3.43.57,5.59-1.64,7.59-3.77C45.62-33.71,50.16-38.87,54.76-44Z" transform="translate(269 269)"/><path class="cls-37" d="M58.1-39l2.07-1.17c5.45-1.59,8.66-6.11,12.6-9.68,1.44-1.3,2.86-2.63,4.29-3.94,1.11.91,3.11,1.53,1.13,3.44-1.26-2.08-1.85,0-2.47.51-3.45,3-6.64,6.44-10.3,9.21C63.46-39.11,61.21-36.38,58.1-39Z" transform="translate(269 269)"/><path class="cls-38" d="M43.88-80.82l-1,2.71c-6.23-.31-12.29,1.42-18.54,1.4C30.31-80.63,37.27-79.94,43.88-80.82Z" transform="translate(269 269)"/><path class="cls-39" d="M204.06,108c.62.89,1.24,1.77,1.85,2.66-1,3.06-3.27,5.21-5.14,7.45.86-.62,1.56-2.07,3.19-1.21l.94,1c-2,3-5.42,6.78-8.05,4.72-3.15-2.49,1.34-5.52,3-8.14C201.19,112.33,203.79,110.94,204.06,108Z" transform="translate(269 269)"/><path class="cls-40" d="M48.14-79.22c.3-.53.59-1.06.88-1.59A94.26,94.26,0,0,1,68.3-81.92c1.24,0,3.26-.35,3.22,1.34,0,2.25-2,.85-3.07.78C61.66-80.23,54.91-79.63,48.14-79.22Z" transform="translate(269 269)"/><path class="cls-41" d="M-155.61,104.2c0-1.45-.66-3,.55-4.25,3.36-3.7,5.13-8.34,7.5-12.62.81-1.45.95-3.77,3.55-3.43a3.22,3.22,0,0,1,1,0C-145.83,91.54-149.42,98.68-155.61,104.2Z" transform="translate(269 269)"/><path class="cls-42" d="M107.86-40.17c0-.67.07-1.33.1-2a40.2,40.2,0,0,1,17.61-7.13C119.68-46.17,113.64-43.43,107.86-40.17Z" transform="translate(269 269)"/><path class="cls-43" d="M5,108l1.13.27C3,113.12,0,118.12-4,122.35c-1.1,1.15-2,2.78-4,2.6,0-.64,0-1.27,0-1.91,4.49-2.51,6.36-7.3,9.52-11Z" transform="translate(269 269)"/><path class="cls-31" d="M-52.07,110.89c-2.32,1.06-4.86,3.2-7,.3s-.26-6,1.06-8.76a1.34,1.34,0,0,1,2-.7c.65.41.57,1.13.35,1.77s-.57,1.19-.77,1.81C-57.9,110.11-57.16,111-52.07,110.89Z" transform="translate(269 269)"/><path class="cls-44" d="M222.71,83c0,1,.23,2-.64,2.74-4.68-2.26-9.47.16-14.24-.44C212.46,82.3,217.65,83,222.71,83Z" transform="translate(269 269)"/><path class="cls-45" d="M226.08,83.84c-.1-1-.26-2,.68-2.75,2.29,2,5,.61,7.54,1,2,.3,4.24-.73,6.65,1.77Z" transform="translate(269 269)"/><path class="cls-46" d="M205,105.93c-1.41-1.56-3-3-1.18-5.35,1.49-1.85,3.16-1.94,5-.67C208.62,102.56,204.7,102.88,205,105.93Z" transform="translate(269 269)"/><path class="cls-47" d="M-53.19,97.18a1.46,1.46,0,0,1-1.4,1.6,1.1,1.1,0,0,1-1.28-1.09,1.32,1.32,0,0,1,1.34-1.58A1.18,1.18,0,0,1-53.19,97.18Z" transform="translate(269 269)"/><path class="cls-48" d="M247,25c2.74-2.07,3.51-7.06,8.75-5.88-1.45,2.36-4.24,3.25-5.17,5.77,0,5.27-3.38,9.67-3.69,14.87-.24,4.12-1.9,8.12-1.4,12.28.55,4.5,1.71,8.84,6.14,11.33,1.05.6,1.89,1.38,1.53,2.79-2.77,3.31-4.87.3-6.53-1.11-4.63-3.9-4.85-9.55-5-15.07-.07-2.32.09-4.64.15-7A67.11,67.11,0,0,1,247,25Z" transform="translate(269 269)"/><path class="cls-49" d="M275,22.25c1.37.33,2.7-1.48,4.12-.11-8.26,9.76-5.64,20.92-4.27,31.91a2.83,2.83,0,0,1,1.59,2.32c1.1,3.61,1.73,7.38,3.41,10.8.56,1.14,1.05,2.65,2.84,2.1,1.61-.5,1.66-2,1.57-3.27-.16-2.45-1.27-4.79-1-7.31a1.9,1.9,0,0,1,1.22-1.44c2.69-.27,4.33.5,3.58,3.62.22,3.09,1.5,6.15,0,9.27-1.14,2.34-2.63,4.38-5.33,4.64s-4.67-1.33-6-3.64c-2.93-5.06-4.06-10.77-5.66-16.3-2.05-.83-2.26-2.77-2.49-4.51-1-7.76-.05-15.43,1.65-23C270.8,24.92,272.16,22.74,275,22.25Z" transform="translate(269 269)"/><path class="cls-50" d="M259,27.15c2.36-2.49,2.6-6.76,6.45-8.1a2,2,0,0,1,0,2.51c-10.24,18-8.36,37.33-6.29,56.68.07.59.66,1.11,1,1.66,0,1.62,1.07,2.74,2,3.83,4.56,5.08,7.84,4.13,12.11-3.46.45,4.07-.35,6-3,7.65-2.93,1.79-5.58,1.14-8.32-.6-5.14-3.29-6.36-8.59-7.44-14-.43-2.1-.54-4.26-.8-6.39-.53-1.34-1.37-2.59-1.35-4.11a55.9,55.9,0,0,0-.24-7.87c-1.07-7.79.19-15.35,2.28-22.82C256,30.13,256.68,28,259,27.15Z" transform="translate(269 269)"/><path class="cls-51" d="M269,20.1c2.18-1.23,3.42-.91,3.11,1.92a3.75,3.75,0,0,1-.8,2.78c-6,8.67-5.33,18.33-4.1,28a4.67,4.67,0,0,1-1.12,4.1c-1,6.17,2.73,10.25,7.95,14.61-3.9,0-5.1-2.1-7-2.76a19.92,19.92,0,0,1-4.22-11.66c-.9-.93-.08-2.2-.64-3.2-.78-7-2-14,.33-21.13A36.91,36.91,0,0,1,269,20.1Z" transform="translate(269 269)"/><path class="cls-52" d="M266.07,56.94c-1.22-8.51-2.68-17-.05-25.55,1.12-3.64,2.65-7.15,6.07-9.37,1-.53,2.06-1.13,3,.23-5.79,10.32-5.9,21.33-3.94,32.59C270.13,57.24,268.43,57.88,266.07,56.94Z" transform="translate(269 269)"/><path class="cls-53" d="M260.94,78c-2.32-7.1-1.66-8.15,5-8a12,12,0,0,0,5.15,3.71c2.37,1.06,2.88,2.68,1.76,4.72-1.29,2.36-1.89,5.9-5.18,6C263.78,84.47,262.72,80.63,260.94,78Z" transform="translate(269 269)"/><path class="cls-54" d="M276.32,123.36c2-6.57-1.62-12.06-3.41-17.92-1.41-4.61-.17-8.87,1.09-13.15,1.7-5.79,2.94-11.6,1.69-18,2.86.64,3,2.54,3.18,4.51A27,27,0,0,1,276.94,91a24.08,24.08,0,0,0,.64,20.23,17.65,17.65,0,0,1,1.19,10.26C278.62,122.57,278.25,123.44,276.32,123.36Z" transform="translate(269 269)"/><path class="cls-55" d="M254.73,63l0,4-1.59-.83c-7-2.21-9-7.7-8.9-14.23.21-9.42.79-18.83,6.32-27L252,26.22c1,2.06.05,3.87-.75,5.69-2.89,6.57-3.19,13.52-2.73,20.5.22,3.25,2.24,5.83,4.59,8.05A7,7,0,0,1,254.73,63Z" transform="translate(269 269)"/><path class="cls-56" d="M287.78,46.79c.07-2.33,1.69-1.75,3.05-1.62-1.39,5.42-.36,10.41,2.33,15.25,3,5.43,2.82,11.11.8,16.82-.35,1-.38,1-3.1,2.94,1.41-7.11,4.37-14-.95-20.17-2.28-1.56-3.85-3.51-3.5-6.49C286.51,51.2,286,48.76,287.78,46.79Z" transform="translate(269 269)"/><path class="cls-57" d="M287.76,54.09c-.11,2.27,1.52,3.91,2.15,5.92l-1.78.86c-.5-2.17-1.6-3.36-4-2.54-2.09,1.08-4.36-.21-6.48.5a2.86,2.86,0,0,1-1.31-.3,2.38,2.38,0,0,1-1.14-1.6l-.31-2.88L277,52.88c.89-1,1.83-.54,2.77-.1l1.28.08a4.28,4.28,0,0,1,3.07-.46C285.65,52.22,287.16,52.17,287.76,54.09Z" transform="translate(269 269)"/><path class="cls-58" d="M-82.42-16.43C-80-9.72-78.89-4.36-80.51,1.26c-.31,1-.62,2.49-2.15,2.18C-83.78,3.21-83.9,2-84,1-84.3-4.41-84.64-9.82-82.42-16.43Z" transform="translate(269 269)"/><path class="cls-59" d="M259,27.15a95.3,95.3,0,0,0-4.21,27.75c-1.09,1.67-2,3.77-4.61,2.24-3.3-4.82-1.54-10.24-1.57-15.36,0-4.6,1.6-9.06,3.69-13.22.93-1.86,1.82-4,4.63-3.53A2.33,2.33,0,0,1,259,27.15Z" transform="translate(269 269)"/><path class="cls-60" d="M256.92,25c-7.63,7.15-7.22,16.58-7.18,25.83,0,2-.37,4.39,1.54,6,1.45,1.34,3.88,2.37,1.53,4.89-4.3-2.26-5.59-6.19-5.86-10.66A45.76,45.76,0,0,1,252,26.22c2.44-2.58,4.5-5.66,8.4-6.45C261.21,22.87,257.44,22.88,256.92,25Z" transform="translate(269 269)"/><path class="cls-61" d="M262.18,53.93a3.32,3.32,0,0,1,.64,3.2,6.24,6.24,0,0,0-.61.75c-.66,1.09.9,3.24-1.56,3.43a1.58,1.58,0,0,1-1.71-1.47c-.08-1.65-1.06-3.82,2-4C262,55.77,262,54.69,262.18,53.93Z" transform="translate(269 269)"/><path class="cls-62" d="M263.52,67.14c0,1.12-.88,1.21-1.66,1.26-.95.07-2.07.18-2.25-1.1-.16-1,.75-1.25,1.57-1.29C262.16,66,263.13,66,263.52,67.14Z" transform="translate(269 269)"/><path class="cls-61" d="M262.14,63.7c-.28.25-.63.8-.93.77-.58,0-1.42-.27-1.65-.69-.48-.89.42-1,1-1.08A1.28,1.28,0,0,1,262.14,63.7Z" transform="translate(269 269)"/><path class="cls-63" d="M-109,105.06c-4.06,2.63-5.48-1.58-8-3.07,0-3-2-5.18-3.09-7.74-3.43-8.24-1.51-14,6.36-18.38,12.84-7.08,32.52-8.71,45.54,6.25,6.42,11.34,5.21,22.37-4.32,34.09-8.6,10.57-19.51,17.44-33.32,19.17a29.24,29.24,0,0,1-10.39-.8c-8.51-2-11.35-7.14-8.74-15.58,1.93-2,3.77-4.08,5.81-6,4.54-4.2,4.94-4.12,8.08,1,3.21,3.18.74,7.23,1.9,10.77a36.51,36.51,0,0,1,1-14.45c1.26-5.11,2.19-6.07,7.64-6.38,1.65-.09,3.25-.88,4.93-.3-10.64-.14-10.64-.14-5.89-9.65-1.2,2.74-3,5.47-3.84,8.68C-105.75,104.46-106.91,105.63-109,105.06Z" transform="translate(269 269)"/><path class="cls-64" d="M284.05,53.8c-1.21.31-2-.57-3-.94-1.42-6-5-11.59-4.11-18.16.09-.65,0-1.32.09-2,.42-3.76,1.5-7.4,5-9.2s5.38,2.11,8,3.49c-1.58,2.37-3.34,1.16-5.14.3-2.58-1.25-4.1-.17-4.81,2.4-1.43,5.16-.31,10.13,1.15,15.07a6.89,6.89,0,0,1,2.65,2.29,4,4,0,0,1,.51,1.33C284.58,50.22,285.86,52.1,284.05,53.8Z" transform="translate(269 269)"/><path class="cls-65" d="M285.73,33a1,1,0,0,1,.34,1.43c.29,1.58,1.11,3.51-.42,4.56a3.26,3.26,0,0,1-4.73-1c.62-1.78-3-3.32-.3-5.21C282.34,32.41,284.06,32.13,285.73,33Z" transform="translate(269 269)"/><path class="cls-66" d="M291.18,37.08c-.43,1.24.79,3.53-1.44,3.46-2.64-.08-1.86-2.62-1.94-4.26-.06-1.31-.6-3.44,1.79-3.16S290.7,35.72,291.18,37.08Z" transform="translate(269 269)"/><path class="cls-67" d="M284.05,53.8c-.39-1.94-.77-3.88-1.16-5.82,1.36-.48,2.76-.79,4.16-1.14a6,6,0,0,1,.73-.05c0,2.43,0,4.86,0,7.3Z" transform="translate(269 269)"/><path class="cls-68" d="M287.05,46.84c-.52,1.17-1,2.34-1.58,3.59L282.89,48l.07,0a3.11,3.11,0,0,1,0-3.83C284.92,44.19,286.92,44.08,287.05,46.84Z" transform="translate(269 269)"/><path class="cls-64" d="M280.92,38.06c3.86,1.88,5.24.19,5.15-3.6,1.16,1.79,1.7,4.19,0,5.24C284.71,40.55,281.85,41,280.92,38.06Z" transform="translate(269 269)"/><path class="cls-64" d="M285.73,33l-5.11-.18C282.37,31.59,284.05,32.26,285.73,33Z" transform="translate(269 269)"/><path class="cls-67" d="M283,44.19,283,48c-1.57-.55-1.3-2.09-1.76-3.24C281.71,44.35,282.2,43.84,283,44.19Z" transform="translate(269 269)"/><path class="cls-69" d="M111.89-61.1c-3.81,5-9,8-14.77,10.18C100.32-56.69,105.79-59.33,111.89-61.1Z" transform="translate(269 269)"/><path class="cls-70" d="M92.76-25.61c1.85-4.43,5.48-6.61,8.55-10.18C100.94-31.2,97.66-27.41,92.76-25.61Z" transform="translate(269 269)"/><path class="cls-71" d="M-11.9,102.6a13.3,13.3,0,0,1-3.42,6.14C-15.45,105.07-15.45,105.07-11.9,102.6Z" transform="translate(269 269)"/><path class="cls-72" d="M156,111.12l4.24-2.48c-.56,2.66-1.59,4.42-3.64,4.74-1.11.17-.42-1.51-.52-2.36Z" transform="translate(269 269)"/><path class="cls-73" d="M105.36,75.09c3.19-1.39,5.5-4.23,8.91-5.29,1.67-.52,3.24-.93,4.7.29,1.81,1.49.48,3.07-.08,4.51-2.51,6.4-7.39,11-12.31,15.44-7.4,6.64-15.22,12.79-24.4,16.92,4.5-10.47,11.71-19.06,19.12-27.51C102.61,78,104,76.54,105.36,75.09Z" transform="translate(269 269)"/><path class="cls-74" d="M39.72,106.69c-3.3-.41-.71-2.17-.39-2.78,3.82-7.16,8.77-13.57,13.65-20,2.46-2.46,4.94-4.89,7.36-7.38a27.69,27.69,0,0,1,8-5.84c2-1,4.38-2.45,6.46-.57,2.41,2.18.12,4.43-.87,6.21C68.25,86.43,59.21,93.24,50.05,99.87,46.71,102.28,43.17,104.42,39.72,106.69Z" transform="translate(269 269)"/><path class="cls-75" d="M279.74,52.78l-2.77.1c-3.34-3.93-1.55-8.54-1.66-12.94C275.87,44.55,278.34,48.48,279.74,52.78Z" transform="translate(269 269)"/><path class="cls-76" d="M-8.8-46.15c-.24-.92-.37-1.12-.31-1.22,1.18-2.37,2.57-4.55,5.33-5.3.15,0,.79.76.72,1.05C-3.81-48.74-6.44-47.89-8.8-46.15Z" transform="translate(269 269)"/><path class="cls-77" d="M-144,83.9c-2.77,4.66-5.51,9.34-8.34,14-.6,1-.78,2.74-2.71,2.09,3.17-7.19,6.1-14.5,11.3-20.83C-142.29,81.08-144,82.42-144,83.9Z" transform="translate(269 269)"/><path class="cls-78" d="M235.91,102.59c-.67,1.89-1.48,2.74-3.1,3.13C233,104,233.74,103,235.91,102.59Z" transform="translate(269 269)"/><path class="cls-79" d="M204,116.92c-2.08,1.32-3.41,3.7-6.81,4.49,2.59-4.38,5.15-8,8.76-10.73C206.68,113.2,205.19,115,204,116.92Z" transform="translate(269 269)"/><path class="cls-80" d="M180,102.13c-.65,2.38-1.56,3.15-3.37,3.45C177,103.79,178.1,103.12,180,102.13Z" transform="translate(269 269)"/><path class="cls-81" d="M-42.86,109.73c-.11-2.4.21-4.66,2.51-6.52C-39.54,106.28-41.18,108-42.86,109.73Z" transform="translate(269 269)"/><path class="cls-82" d="M-109,105.06c3.47-2.17,3.42-6.28,5.09-9.44s3.1-6.27,5.51-8.77l1.3.75c-2.25,4.86-4.5,9.72-6.93,15,4.41.45,8.4-.89,12.19.54.9.34,2.15.76,1.77,2-.42,1.38-1.51.56-2.43.36-11.91-2.67-16.6,1.61-15.6,14.24.13,1.64.73,3.24.81,4.88.11,2.1.55,5.31-2,5.47-2.92.19-2.18-3.15-2.28-5.1-.2-3.64,1.25-7.23.51-10.92.65-.73,1.3-1.45,1.94-2.18-1.45-1.89-1-3.45.81-4.79Z" transform="translate(269 269)"/><path class="cls-83" d="M-108.27,107.07l-.81,4.79c-2.08.16-2.39-1.61-2.38-2.83C-111.43,107.21-109.73,107.11-108.27,107.07Z" transform="translate(269 269)"/><path class="cls-84" d="M276.89,57.92c2.55-2.28,4.87-.52,7.25.41,1.08,3.14,2.28,6.28,1.7,9.69-.32,1.83-.93,3.77-3,4.27-2.37.58-3.16-1.58-3.89-3.12a38.64,38.64,0,0,1-3.79-12.24l1.67,1c2.73,1.6,3.42,4.55,4.74,7.71C281.94,61.41,279.29,59.75,276.89,57.92Z" transform="translate(269 269)"/><path class="cls-3" d="M252.81,61.78c.72-2-1-3.27-1.53-4.89l3.5-2c0,2.69,0,5.38-.05,8.07Z" transform="translate(269 269)"/><path class="cls-85" d="M268.61,51.06c-.82-.22-1.06-.21-1.1-.3-1.17-2.48-2.31-5-.85-7.72a1.42,1.42,0,0,1,1.27,0C269.54,45.52,269,48.17,268.61,51.06Z" transform="translate(269 269)"/><path class="cls-86" d="M269.56,33.48c-1.08,1.07.47,3.69-1.86,3.94-1.33.15-1.8-1.34-1.22-2.6s-.21-3.79,2.29-3.76C270.27,31.08,269.76,32.43,269.56,33.48Z" transform="translate(269 269)"/><path class="cls-87" d="M276.89,57.92c5.51,0,9.38,6.21,6.79,11.08-1.19,2.24-2.37,1.25-3-.41-1.36-3.51-2.54-7.08-3.8-10.63Z" transform="translate(269 269)"/></svg>